<svg version="1.1" xmlns="http://www.w3.org/2000/svg" xmlns:xlink="http://www.w3.org/1999/xlink" width="48" height="48"><defs><linearGradient x1="10.46951" y1="10.46951" x2="66.90838" y2="66.90838" gradientUnits="userSpaceOnUse" id="color-1"><stop offset="0" stop-color="#000000" stop-opacity="0.15"></stop><stop offset="1" stop-color="#000000" stop-opacity="0"></stop></linearGradient><filter id="dropshadow-base"><feColorMatrix type="matrix" values="0 0 0 0 0  0 0 0 0 0  0 0 0 0 0  0 0 0 .8 0"></feColorMatrix> <feOffset dx="0" dy="1"></feOffset> <feGaussianBlur stdDeviation="1"></feGaussianBlur> <feComposite in="SourceGraphic"></feComposite></filter><filter id="dropshadow-banner" x="-10%" y="-10%" width="120%" height="130%"><feColorMatrix type="matrix" values="0 0 0 0 0  0 0 0 0 0  0 0 0 0 0  0 0 0 .4 0"></feColorMatrix> <feOffset dx="0" dy="1"></feOffset> <feGaussianBlur stdDeviation="0.5"></feGaussianBlur> <feComposite in="SourceGraphic"></feComposite></filter></defs><g fill="none" fill-rule="nonzero" stroke="none" stroke-width="none" stroke-linecap="butt" stroke-linejoin="miter" stroke-miterlimit="10" stroke-dasharray="" stroke-dashoffset="0" font-family="none" font-weight="none" font-size="none" text-anchor="none" style="mix-blend-mode: normal"><path d="M2,24c0,-12.15026 9.84974,-22 22,-22c12.15026,0 22,9.84974 22,22c0,12.15026 -9.84974,22 -22,22c-12.15026,0 -22,-9.84974 -22,-22z" id="base 1 5" fill="#d0d0d0" stroke="none" stroke-width="1"></path><path d="M11.35017,36.64983c-0.54412,-0.54412 -0.88066,-1.29581 -0.88066,-2.12611v-21.04744c0,-1.6606 1.34618,-3.00677 3.00677,-3.00677h15.03388l17.18731,17.18731c-1.74156,10.4098 -10.79304,18.34318 -21.69747,18.34318c-1.22299,0 -2.42267,-0.09979 -3.59134,-0.29168z" fill="url(#color-1)" stroke="none" stroke-width="1"></path><path d="M28.51016,10.46951l9.02033,9.02033v15.03388c0,1.6606 -1.34618,3.00678 -3.00678,3.00678h-21.04744c-1.6606,0 -3.00678,-1.34618 -3.00678,-3.00678v-21.04744c0,-1.6606 1.34618,-3.00678 3.00678,-3.00678h15.03388zM34.52372,20.99322v13.53049zM31.51694,27.00678v-3.00678zM27.00678,31.51694v-3.00678z" id="path10 1 1" fill="none" stroke="none" stroke-width="0"></path><g id="svg12 2"><path d="M28.51016,10.46951h-15.03388c-1.6606,0 -3.00678,1.34618 -3.00678,3.00678v21.04744c0,1.6606 1.34618,3.00678 3.00678,3.00678h21.04744c1.6606,0 3.00678,-1.34618 3.00678,-3.00678v-15.03388l-9.02033,-9.02033M34.52372,34.52372h-21.04744v-21.04744h13.53049v7.51694h7.51694M31.51694,27.00678h-15.03388v-3.00678h15.03388M27.00678,31.51694h-10.52372v-3.00678h10.52372" id="path10 1" fill="#000000" stroke="none" stroke-width="1"></path><path d="M13.47628,24v-10.52372h6.76525h6.76525v3.75847v3.75847h3.75847h3.75847v6.76525v6.76525h-10.52372h-10.52372zM27.00678,30.01355v-1.50339h-5.26186h-5.26186v1.50339v1.50339h5.26186h5.26186zM31.51694,25.50339v-1.50339h-7.51694h-7.51694v1.50339v1.50339h7.51694h7.51694z" id="path20 1" fill="#ffee58" stroke="#000000" stroke-width="0.01333"></path></g><path d="M2,24c0,-12.15026 9.84974,-22 22,-22c12.15026,0 22,9.84974 22,22c0,12.15026 -9.84974,22 -22,22c-12.15026,0 -22,-9.84974 -22,-22z" id="base 1 1 1" fill="none" stroke="none" stroke-width="1"></path><g id="svg12 1 1" fill="#000000" stroke="none" stroke-width="1" font-family="Roboto, sans-serif" font-weight="400" font-size="14" text-anchor="start"></g><rect x="2" y="2" width="44" height="22" fill="none" stroke="none" stroke-width="1"></rect><path d="M2,24v-22h44v22z" fill="none" stroke="none" stroke-width="1"></path><path d="M2,24v-22h44v22z" fill="none" stroke="none" stroke-width="1"></path><path d="M2,24v-22h44v22z" fill="none" stroke="none" stroke-width="1"></path><path d="M2,24v-22h44v22z" fill="none" stroke="none" stroke-width="1"></path></g></svg>